<mxfile host="app.diagrams.net" agent="Mozilla/5.0 (X11; Linux x86_64; rv:133.0) Gecko/20100101 Firefox/133.0" version="26.0.16" pages="3">
  <diagram id="MDtHZ6pGdsajcSI9P2T4" name="CD-Join-Public-class-main">
    <mxGraphModel dx="4449" dy="1911" grid="1" gridSize="10" guides="1" tooltips="1" connect="1" arrows="1" fold="1" page="0" pageScale="1" pageWidth="850" pageHeight="1100" math="0" shadow="0">
      <root>
        <mxCell id="0" />
        <mxCell id="1" parent="0" />
        <mxCell id="D-RGQZih868TQZSiE14y-1" style="edgeStyle=orthogonalEdgeStyle;rounded=0;orthogonalLoop=1;jettySize=auto;html=1;entryX=0;entryY=0.5;entryDx=0;entryDy=0;endArrow=none;startFill=0;" parent="1" edge="1">
          <mxGeometry relative="1" as="geometry">
            <mxPoint x="-2025" y="-440" as="sourcePoint" />
            <mxPoint x="-1820" y="-440" as="targetPoint" />
          </mxGeometry>
        </mxCell>
        <mxCell id="D-RGQZih868TQZSiE14y-2" value="User" style="shape=umlActor;verticalLabelPosition=bottom;verticalAlign=top;html=1;outlineConnect=0;" parent="1" vertex="1">
          <mxGeometry x="-2060" y="-480" width="35" height="70" as="geometry" />
        </mxCell>
        <mxCell id="D-RGQZih868TQZSiE14y-3" value=":Frontend" style="rounded=0;whiteSpace=wrap;html=1;" parent="1" vertex="1">
          <mxGeometry x="-1820" y="-465" width="130.91" height="40" as="geometry" />
        </mxCell>
        <mxCell id="D-RGQZih868TQZSiE14y-4" value="" style="endArrow=classic;html=1;rounded=0;" parent="1" edge="1">
          <mxGeometry width="50" height="50" relative="1" as="geometry">
            <mxPoint x="-2000" y="-455" as="sourcePoint" />
            <mxPoint x="-1840" y="-455" as="targetPoint" />
          </mxGeometry>
        </mxCell>
        <mxCell id="D-RGQZih868TQZSiE14y-5" value="" style="endArrow=classic;html=1;rounded=0;dashed=1;" parent="1" edge="1">
          <mxGeometry width="50" height="50" relative="1" as="geometry">
            <mxPoint x="-1850" y="-425" as="sourcePoint" />
            <mxPoint x="-2010" y="-425" as="targetPoint" />
          </mxGeometry>
        </mxCell>
        <mxCell id="D-RGQZih868TQZSiE14y-6" value="&amp;nbsp;:Router" style="rounded=0;whiteSpace=wrap;html=1;" parent="1" vertex="1">
          <mxGeometry x="-1480" y="-465" width="130.91" height="40" as="geometry" />
        </mxCell>
        <mxCell id="D-RGQZih868TQZSiE14y-7" style="edgeStyle=orthogonalEdgeStyle;rounded=0;orthogonalLoop=1;jettySize=auto;html=1;entryX=0;entryY=0.5;entryDx=0;entryDy=0;endArrow=none;startFill=0;" parent="1" target="D-RGQZih868TQZSiE14y-6" edge="1">
          <mxGeometry relative="1" as="geometry">
            <mxPoint x="-1689.09" y="-445" as="sourcePoint" />
            <mxPoint x="-1484.09" y="-445" as="targetPoint" />
          </mxGeometry>
        </mxCell>
        <mxCell id="D-RGQZih868TQZSiE14y-8" value="" style="endArrow=classic;html=1;rounded=0;" parent="1" edge="1">
          <mxGeometry width="50" height="50" relative="1" as="geometry">
            <mxPoint x="-1664.09" y="-460" as="sourcePoint" />
            <mxPoint x="-1504.09" y="-460" as="targetPoint" />
          </mxGeometry>
        </mxCell>
        <mxCell id="D-RGQZih868TQZSiE14y-9" value="" style="endArrow=classic;html=1;rounded=0;dashed=1;" parent="1" edge="1">
          <mxGeometry width="50" height="50" relative="1" as="geometry">
            <mxPoint x="-1514.09" y="-430" as="sourcePoint" />
            <mxPoint x="-1674.09" y="-430" as="targetPoint" />
          </mxGeometry>
        </mxCell>
        <mxCell id="D-RGQZih868TQZSiE14y-10" value="&amp;nbsp;" style="text;whiteSpace=wrap;html=1;" parent="1" vertex="1">
          <mxGeometry x="-1580" y="-480" width="40" height="40" as="geometry" />
        </mxCell>
        <mxCell id="D-RGQZih868TQZSiE14y-55" style="edgeStyle=orthogonalEdgeStyle;rounded=0;orthogonalLoop=1;jettySize=auto;html=1;entryX=0;entryY=0.5;entryDx=0;entryDy=0;endArrow=none;startFill=0;" parent="1" source="D-RGQZih868TQZSiE14y-11" target="D-RGQZih868TQZSiE14y-53" edge="1">
          <mxGeometry relative="1" as="geometry" />
        </mxCell>
        <mxCell id="D-RGQZih868TQZSiE14y-11" value="&amp;nbsp;:ClassController" style="rounded=0;whiteSpace=wrap;html=1;" parent="1" vertex="1">
          <mxGeometry x="-1140" y="-465" width="170" height="40" as="geometry" />
        </mxCell>
        <mxCell id="D-RGQZih868TQZSiE14y-12" style="edgeStyle=orthogonalEdgeStyle;rounded=0;orthogonalLoop=1;jettySize=auto;html=1;entryX=0;entryY=0.5;entryDx=0;entryDy=0;endArrow=none;startFill=0;" parent="1" target="D-RGQZih868TQZSiE14y-11" edge="1">
          <mxGeometry relative="1" as="geometry">
            <mxPoint x="-1349.09" y="-445" as="sourcePoint" />
            <mxPoint x="-1144.09" y="-445" as="targetPoint" />
          </mxGeometry>
        </mxCell>
        <mxCell id="D-RGQZih868TQZSiE14y-13" value="" style="endArrow=classic;html=1;rounded=0;" parent="1" edge="1">
          <mxGeometry width="50" height="50" relative="1" as="geometry">
            <mxPoint x="-1324.09" y="-460" as="sourcePoint" />
            <mxPoint x="-1164.09" y="-460" as="targetPoint" />
          </mxGeometry>
        </mxCell>
        <mxCell id="D-RGQZih868TQZSiE14y-14" value="" style="endArrow=classic;html=1;rounded=0;dashed=1;" parent="1" edge="1">
          <mxGeometry width="50" height="50" relative="1" as="geometry">
            <mxPoint x="-1174.09" y="-430" as="sourcePoint" />
            <mxPoint x="-1334.09" y="-430" as="targetPoint" />
          </mxGeometry>
        </mxCell>
        <mxCell id="D-RGQZih868TQZSiE14y-19" style="edgeStyle=orthogonalEdgeStyle;rounded=0;orthogonalLoop=1;jettySize=auto;html=1;endArrow=none;startFill=0;exitX=0.559;exitY=0.993;exitDx=0;exitDy=0;exitPerimeter=0;" parent="1" source="D-RGQZih868TQZSiE14y-54" target="D-RGQZih868TQZSiE14y-31" edge="1">
          <mxGeometry relative="1" as="geometry">
            <mxPoint x="-335" y="-420" as="sourcePoint" />
          </mxGeometry>
        </mxCell>
        <mxCell id="D-RGQZih868TQZSiE14y-24" style="edgeStyle=orthogonalEdgeStyle;rounded=0;orthogonalLoop=1;jettySize=auto;html=1;entryX=0.5;entryY=1;entryDx=0;entryDy=0;endArrow=none;startFill=0;" parent="1" source="D-RGQZih868TQZSiE14y-25" target="D-RGQZih868TQZSiE14y-6" edge="1">
          <mxGeometry relative="1" as="geometry" />
        </mxCell>
        <mxCell id="D-RGQZih868TQZSiE14y-25" value="&amp;nbsp;:Middleware" style="rounded=0;whiteSpace=wrap;html=1;" parent="1" vertex="1">
          <mxGeometry x="-1480" y="-190" width="130.91" height="40" as="geometry" />
        </mxCell>
        <mxCell id="D-RGQZih868TQZSiE14y-26" value="" style="endArrow=classic;html=1;rounded=0;dashed=1;" parent="1" edge="1">
          <mxGeometry width="50" height="50" relative="1" as="geometry">
            <mxPoint x="-1400" y="-195" as="sourcePoint" />
            <mxPoint x="-1400" y="-395" as="targetPoint" />
          </mxGeometry>
        </mxCell>
        <mxCell id="D-RGQZih868TQZSiE14y-27" value="" style="endArrow=classic;html=1;rounded=0;" parent="1" edge="1">
          <mxGeometry width="50" height="50" relative="1" as="geometry">
            <mxPoint x="-1430" y="-395" as="sourcePoint" />
            <mxPoint x="-1430" y="-195" as="targetPoint" />
          </mxGeometry>
        </mxCell>
        <mxCell id="D-RGQZih868TQZSiE14y-28" value="" style="endArrow=none;html=1;rounded=0;entryX=0.221;entryY=0.995;entryDx=0;entryDy=0;entryPerimeter=0;" parent="1" target="D-RGQZih868TQZSiE14y-25" edge="1">
          <mxGeometry width="50" height="50" relative="1" as="geometry">
            <mxPoint x="-1451" y="-100" as="sourcePoint" />
            <mxPoint x="-1450" y="-150" as="targetPoint" />
          </mxGeometry>
        </mxCell>
        <mxCell id="D-RGQZih868TQZSiE14y-29" value="" style="endArrow=classic;html=1;rounded=0;" parent="1" edge="1">
          <mxGeometry width="50" height="50" relative="1" as="geometry">
            <mxPoint x="-1400" y="-100" as="sourcePoint" />
            <mxPoint x="-1400" y="-149" as="targetPoint" />
          </mxGeometry>
        </mxCell>
        <mxCell id="D-RGQZih868TQZSiE14y-30" value="" style="endArrow=none;html=1;rounded=0;" parent="1" edge="1">
          <mxGeometry width="50" height="50" relative="1" as="geometry">
            <mxPoint x="-1450" y="-100" as="sourcePoint" />
            <mxPoint x="-1400" y="-100" as="targetPoint" />
          </mxGeometry>
        </mxCell>
        <mxCell id="D-RGQZih868TQZSiE14y-31" value="&amp;nbsp;:Database" style="rounded=0;whiteSpace=wrap;html=1;" parent="1" vertex="1">
          <mxGeometry x="-399.99999999999994" y="-135" width="130.91" height="40" as="geometry" />
        </mxCell>
        <mxCell id="D-RGQZih868TQZSiE14y-32" value="" style="endArrow=classic;html=1;rounded=0;" parent="1" edge="1">
          <mxGeometry width="50" height="50" relative="1" as="geometry">
            <mxPoint x="-350" y="-410" as="sourcePoint" />
            <mxPoint x="-350" y="-155" as="targetPoint" />
          </mxGeometry>
        </mxCell>
        <mxCell id="D-RGQZih868TQZSiE14y-33" value="" style="endArrow=classic;html=1;rounded=0;dashed=1;" parent="1" edge="1">
          <mxGeometry width="50" height="50" relative="1" as="geometry">
            <mxPoint x="-320" y="-155" as="sourcePoint" />
            <mxPoint x="-320" y="-410" as="targetPoint" />
          </mxGeometry>
        </mxCell>
        <mxCell id="D-RGQZih868TQZSiE14y-53" value="&amp;nbsp;:ClassService" style="rounded=0;whiteSpace=wrap;html=1;" parent="1" vertex="1">
          <mxGeometry x="-790" y="-465" width="170" height="40" as="geometry" />
        </mxCell>
        <mxCell id="D-RGQZih868TQZSiE14y-54" value="ClassRepository" style="rounded=0;whiteSpace=wrap;html=1;" parent="1" vertex="1">
          <mxGeometry x="-430.00000000000006" y="-465" width="170" height="40" as="geometry" />
        </mxCell>
        <mxCell id="D-RGQZih868TQZSiE14y-56" style="edgeStyle=orthogonalEdgeStyle;rounded=0;orthogonalLoop=1;jettySize=auto;html=1;entryX=0;entryY=0.5;entryDx=0;entryDy=0;endArrow=none;startFill=0;" parent="1" target="D-RGQZih868TQZSiE14y-54" edge="1">
          <mxGeometry relative="1" as="geometry">
            <mxPoint x="-620" y="-445.34" as="sourcePoint" />
            <mxPoint x="-440" y="-445.34" as="targetPoint" />
          </mxGeometry>
        </mxCell>
        <mxCell id="D-RGQZih868TQZSiE14y-57" value="" style="endArrow=classic;html=1;rounded=0;" parent="1" edge="1">
          <mxGeometry width="50" height="50" relative="1" as="geometry">
            <mxPoint x="-960" y="-460" as="sourcePoint" />
            <mxPoint x="-800" y="-460" as="targetPoint" />
          </mxGeometry>
        </mxCell>
        <mxCell id="D-RGQZih868TQZSiE14y-58" value="" style="endArrow=classic;html=1;rounded=0;dashed=1;" parent="1" edge="1">
          <mxGeometry width="50" height="50" relative="1" as="geometry">
            <mxPoint x="-800" y="-430" as="sourcePoint" />
            <mxPoint x="-960" y="-430" as="targetPoint" />
          </mxGeometry>
        </mxCell>
        <mxCell id="D-RGQZih868TQZSiE14y-59" value="" style="endArrow=classic;html=1;rounded=0;" parent="1" edge="1">
          <mxGeometry width="50" height="50" relative="1" as="geometry">
            <mxPoint x="-600" y="-460.34" as="sourcePoint" />
            <mxPoint x="-440" y="-460.34" as="targetPoint" />
          </mxGeometry>
        </mxCell>
        <mxCell id="D-RGQZih868TQZSiE14y-60" value="" style="endArrow=classic;html=1;rounded=0;dashed=1;" parent="1" edge="1">
          <mxGeometry width="50" height="50" relative="1" as="geometry">
            <mxPoint x="-440" y="-430.34" as="sourcePoint" />
            <mxPoint x="-600" y="-430.34" as="targetPoint" />
          </mxGeometry>
        </mxCell>
        <mxCell id="D-RGQZih868TQZSiE14y-63" value="&lt;div&gt;6. Show error &quot;Please log in&quot;&lt;/div&gt;&lt;div&gt;17. Show error &quot;Failed to fetch classes&quot;&lt;/div&gt;&lt;div&gt;23. Show message &quot;No public class available&quot;&lt;br&gt;&lt;/div&gt;&lt;div&gt;&lt;br&gt;&lt;/div&gt;" style="text;html=1;align=left;verticalAlign=middle;resizable=0;points=[];autosize=1;strokeColor=none;fillColor=none;" parent="1" vertex="1">
          <mxGeometry x="-2010" y="-415" width="280" height="70" as="geometry" />
        </mxCell>
        <mxCell id="D-RGQZih868TQZSiE14y-64" value="1.GET /api/classes/not-enrolled/{user-id}" style="text;html=1;align=left;verticalAlign=middle;resizable=0;points=[];autosize=1;strokeColor=none;fillColor=none;" parent="1" vertex="1">
          <mxGeometry x="-1689.09" y="-495" width="250" height="30" as="geometry" />
        </mxCell>
        <mxCell id="D-RGQZih868TQZSiE14y-65" value="2. Use(Middleware)" style="text;html=1;align=left;verticalAlign=middle;resizable=0;points=[];autosize=1;strokeColor=none;fillColor=none;" parent="1" vertex="1">
          <mxGeometry x="-1560" y="-300" width="130" height="30" as="geometry" />
        </mxCell>
        <mxCell id="D-RGQZih868TQZSiE14y-66" value="3. .Verify()" style="text;html=1;align=left;verticalAlign=middle;resizable=0;points=[];autosize=1;strokeColor=none;fillColor=none;" parent="1" vertex="1">
          <mxGeometry x="-1460" y="-100" width="80" height="30" as="geometry" />
        </mxCell>
        <mxCell id="D-RGQZih868TQZSiE14y-67" value="&lt;div&gt;4. [Unauthorized (401 Unauthorized)] 401 Unauthorized&lt;/div&gt;&lt;div&gt;7.&amp;nbsp;[Authorized] Route to Router&lt;/div&gt;&lt;div&gt;&lt;br&gt; &lt;/div&gt;" style="text;html=1;align=left;verticalAlign=middle;resizable=0;points=[];autosize=1;strokeColor=none;fillColor=none;" parent="1" vertex="1">
          <mxGeometry x="-1380" y="-300" width="340" height="60" as="geometry" />
        </mxCell>
        <mxCell id="D-RGQZih868TQZSiE14y-69" value="&lt;div&gt;5.&amp;nbsp;401 Unauthorized&lt;/div&gt;&lt;div&gt;16. 500 Internal Server Error&lt;/div&gt;&lt;div&gt;19.. 404 Not Found&lt;/div&gt;&lt;div&gt;22. 200 OK&lt;br&gt; &lt;/div&gt;" style="text;html=1;align=left;verticalAlign=middle;resizable=0;points=[];autosize=1;strokeColor=none;fillColor=none;" parent="1" vertex="1">
          <mxGeometry x="-1670" y="-430" width="190" height="70" as="geometry" />
        </mxCell>
        <mxCell id="D-RGQZih868TQZSiE14y-71" value="8. .GetAllPublicClasses(user-id)" style="text;html=1;align=left;verticalAlign=middle;resizable=0;points=[];autosize=1;strokeColor=none;fillColor=none;" parent="1" vertex="1">
          <mxGeometry x="-1330" y="-495" width="200" height="30" as="geometry" />
        </mxCell>
        <mxCell id="D-RGQZih868TQZSiE14y-73" value="9. .GetAllPublicClasses(user-id)" style="text;html=1;align=left;verticalAlign=middle;resizable=0;points=[];autosize=1;strokeColor=none;fillColor=none;" parent="1" vertex="1">
          <mxGeometry x="-979.0899999999999" y="-495" width="200" height="30" as="geometry" />
        </mxCell>
        <mxCell id="D-RGQZih868TQZSiE14y-74" value="10. .GetAllPublicClasses(user-id)" style="text;html=1;align=left;verticalAlign=middle;resizable=0;points=[];autosize=1;strokeColor=none;fillColor=none;" parent="1" vertex="1">
          <mxGeometry x="-620" y="-495" width="210" height="30" as="geometry" />
        </mxCell>
        <mxCell id="D-RGQZih868TQZSiE14y-75" value="&lt;div&gt;11. SELECT * FROM classes WHERE is_public = true AND id NOT IN (SELECT class_id&amp;nbsp;&lt;/div&gt;&lt;div&gt;FROM enrollments WHERE user_id = @user_id)&lt;/div&gt;" style="text;html=1;align=left;verticalAlign=middle;resizable=0;points=[];autosize=1;strokeColor=none;fillColor=none;" parent="1" vertex="1">
          <mxGeometry x="-850" y="-290" width="500" height="40" as="geometry" />
        </mxCell>
        <mxCell id="D-RGQZih868TQZSiE14y-76" value="12. Class, Error" style="text;html=1;align=left;verticalAlign=middle;resizable=0;points=[];autosize=1;strokeColor=none;fillColor=none;" parent="1" vertex="1">
          <mxGeometry x="-310" y="-290" width="110" height="30" as="geometry" />
        </mxCell>
        <mxCell id="D-RGQZih868TQZSiE14y-77" value="13. Class, Error" style="text;html=1;align=left;verticalAlign=middle;resizable=0;points=[];autosize=1;strokeColor=none;fillColor=none;" parent="1" vertex="1">
          <mxGeometry x="-590" y="-425" width="110" height="30" as="geometry" />
        </mxCell>
        <mxCell id="D-RGQZih868TQZSiE14y-78" value="14. Class, Error" style="text;html=1;align=left;verticalAlign=middle;resizable=0;points=[];autosize=1;strokeColor=none;fillColor=none;" parent="1" vertex="1">
          <mxGeometry x="-950" y="-430" width="110" height="30" as="geometry" />
        </mxCell>
        <mxCell id="D-RGQZih868TQZSiE14y-79" value="&lt;div&gt;15. [Error != Null] 500 Internal Server Error&lt;/div&gt;&lt;div&gt;18. [Classes == Null] 404 Not Found&lt;/div&gt;&lt;div&gt;21. 200 OK&lt;br&gt;&lt;/div&gt;" style="text;html=1;align=left;verticalAlign=middle;resizable=0;points=[];autosize=1;strokeColor=none;fillColor=none;" parent="1" vertex="1">
          <mxGeometry x="-1320" y="-430" width="270" height="60" as="geometry" />
        </mxCell>
      </root>
    </mxGraphModel>
  </diagram>
  <diagram id="-caEcUhVEJbjJ6uew8WQ" name="CD-Join-Public-class-[opt][Authorized][User Select Class]">
    <mxGraphModel dx="4449" dy="1911" grid="1" gridSize="10" guides="1" tooltips="1" connect="1" arrows="1" fold="1" page="0" pageScale="1" pageWidth="850" pageHeight="1100" math="0" shadow="0">
      <root>
        <mxCell id="0" />
        <mxCell id="1" parent="0" />
        <mxCell id="O3po6VfUxNVomvbEVrZp-1" style="edgeStyle=orthogonalEdgeStyle;rounded=0;orthogonalLoop=1;jettySize=auto;html=1;entryX=0;entryY=0.5;entryDx=0;entryDy=0;endArrow=none;startFill=0;" edge="1" parent="1">
          <mxGeometry relative="1" as="geometry">
            <mxPoint x="-2150" y="-440" as="sourcePoint" />
            <mxPoint x="-1820" y="-440" as="targetPoint" />
          </mxGeometry>
        </mxCell>
        <mxCell id="O3po6VfUxNVomvbEVrZp-2" value="User" style="shape=umlActor;verticalLabelPosition=bottom;verticalAlign=top;html=1;outlineConnect=0;" vertex="1" parent="1">
          <mxGeometry x="-2190" y="-480" width="35" height="70" as="geometry" />
        </mxCell>
        <mxCell id="O3po6VfUxNVomvbEVrZp-3" value=":Frontend" style="rounded=0;whiteSpace=wrap;html=1;" vertex="1" parent="1">
          <mxGeometry x="-1820" y="-465" width="130.91" height="40" as="geometry" />
        </mxCell>
        <mxCell id="O3po6VfUxNVomvbEVrZp-4" value="" style="endArrow=classic;html=1;rounded=0;" edge="1" parent="1">
          <mxGeometry width="50" height="50" relative="1" as="geometry">
            <mxPoint x="-2140" y="-455" as="sourcePoint" />
            <mxPoint x="-1840" y="-455" as="targetPoint" />
          </mxGeometry>
        </mxCell>
        <mxCell id="O3po6VfUxNVomvbEVrZp-5" value="" style="endArrow=classic;html=1;rounded=0;dashed=1;" edge="1" parent="1">
          <mxGeometry width="50" height="50" relative="1" as="geometry">
            <mxPoint x="-1850" y="-425" as="sourcePoint" />
            <mxPoint x="-2140" y="-425" as="targetPoint" />
          </mxGeometry>
        </mxCell>
        <mxCell id="O3po6VfUxNVomvbEVrZp-6" value="&amp;nbsp;:Router" style="rounded=0;whiteSpace=wrap;html=1;" vertex="1" parent="1">
          <mxGeometry x="-1480" y="-465" width="130.91" height="40" as="geometry" />
        </mxCell>
        <mxCell id="O3po6VfUxNVomvbEVrZp-7" style="edgeStyle=orthogonalEdgeStyle;rounded=0;orthogonalLoop=1;jettySize=auto;html=1;entryX=0;entryY=0.5;entryDx=0;entryDy=0;endArrow=none;startFill=0;" edge="1" parent="1" target="O3po6VfUxNVomvbEVrZp-6">
          <mxGeometry relative="1" as="geometry">
            <mxPoint x="-1689.09" y="-445" as="sourcePoint" />
            <mxPoint x="-1484.09" y="-445" as="targetPoint" />
          </mxGeometry>
        </mxCell>
        <mxCell id="O3po6VfUxNVomvbEVrZp-8" value="" style="endArrow=classic;html=1;rounded=0;" edge="1" parent="1">
          <mxGeometry width="50" height="50" relative="1" as="geometry">
            <mxPoint x="-1664.09" y="-460" as="sourcePoint" />
            <mxPoint x="-1504.09" y="-460" as="targetPoint" />
          </mxGeometry>
        </mxCell>
        <mxCell id="O3po6VfUxNVomvbEVrZp-9" value="" style="endArrow=classic;html=1;rounded=0;dashed=1;" edge="1" parent="1">
          <mxGeometry width="50" height="50" relative="1" as="geometry">
            <mxPoint x="-1514.09" y="-430" as="sourcePoint" />
            <mxPoint x="-1674.09" y="-430" as="targetPoint" />
          </mxGeometry>
        </mxCell>
        <mxCell id="O3po6VfUxNVomvbEVrZp-10" value="&amp;nbsp;" style="text;whiteSpace=wrap;html=1;" vertex="1" parent="1">
          <mxGeometry x="-1580" y="-480" width="40" height="40" as="geometry" />
        </mxCell>
        <mxCell id="O3po6VfUxNVomvbEVrZp-11" style="edgeStyle=orthogonalEdgeStyle;rounded=0;orthogonalLoop=1;jettySize=auto;html=1;entryX=0;entryY=0.5;entryDx=0;entryDy=0;endArrow=none;startFill=0;" edge="1" parent="1">
          <mxGeometry relative="1" as="geometry">
            <mxPoint x="-1349.09" y="-445" as="sourcePoint" />
            <mxPoint x="-1140" y="-445" as="targetPoint" />
          </mxGeometry>
        </mxCell>
        <mxCell id="O3po6VfUxNVomvbEVrZp-12" value="" style="endArrow=classic;html=1;rounded=0;" edge="1" parent="1">
          <mxGeometry width="50" height="50" relative="1" as="geometry">
            <mxPoint x="-1324.09" y="-460" as="sourcePoint" />
            <mxPoint x="-1164.09" y="-460" as="targetPoint" />
          </mxGeometry>
        </mxCell>
        <mxCell id="O3po6VfUxNVomvbEVrZp-13" value="" style="endArrow=classic;html=1;rounded=0;dashed=1;" edge="1" parent="1">
          <mxGeometry width="50" height="50" relative="1" as="geometry">
            <mxPoint x="-1174.09" y="-430" as="sourcePoint" />
            <mxPoint x="-1334.09" y="-430" as="targetPoint" />
          </mxGeometry>
        </mxCell>
        <mxCell id="O3po6VfUxNVomvbEVrZp-14" style="edgeStyle=orthogonalEdgeStyle;rounded=0;orthogonalLoop=1;jettySize=auto;html=1;endArrow=none;startFill=0;" edge="1" parent="1" target="O3po6VfUxNVomvbEVrZp-28">
          <mxGeometry relative="1" as="geometry">
            <mxPoint x="-394.5450000000001" y="-425" as="sourcePoint" />
          </mxGeometry>
        </mxCell>
        <mxCell id="O3po6VfUxNVomvbEVrZp-15" style="edgeStyle=orthogonalEdgeStyle;rounded=0;orthogonalLoop=1;jettySize=auto;html=1;entryX=0.5;entryY=1;entryDx=0;entryDy=0;endArrow=none;startFill=0;" edge="1" parent="1" source="O3po6VfUxNVomvbEVrZp-16" target="O3po6VfUxNVomvbEVrZp-6">
          <mxGeometry relative="1" as="geometry" />
        </mxCell>
        <mxCell id="O3po6VfUxNVomvbEVrZp-16" value="&amp;nbsp;:Middleware" style="rounded=0;whiteSpace=wrap;html=1;" vertex="1" parent="1">
          <mxGeometry x="-1480" y="-190" width="130.91" height="40" as="geometry" />
        </mxCell>
        <mxCell id="O3po6VfUxNVomvbEVrZp-17" value="" style="endArrow=classic;html=1;rounded=0;dashed=1;" edge="1" parent="1">
          <mxGeometry width="50" height="50" relative="1" as="geometry">
            <mxPoint x="-1400" y="-200" as="sourcePoint" />
            <mxPoint x="-1400" y="-400" as="targetPoint" />
          </mxGeometry>
        </mxCell>
        <mxCell id="O3po6VfUxNVomvbEVrZp-18" value="" style="endArrow=classic;html=1;rounded=0;" edge="1" parent="1">
          <mxGeometry width="50" height="50" relative="1" as="geometry">
            <mxPoint x="-1430.43" y="-400" as="sourcePoint" />
            <mxPoint x="-1430.43" y="-200" as="targetPoint" />
          </mxGeometry>
        </mxCell>
        <mxCell id="O3po6VfUxNVomvbEVrZp-19" value="&amp;nbsp;:ClassController" style="rounded=0;whiteSpace=wrap;html=1;" vertex="1" parent="1">
          <mxGeometry x="-1140" y="-465" width="130.91" height="40" as="geometry" />
        </mxCell>
        <mxCell id="O3po6VfUxNVomvbEVrZp-20" value="&amp;nbsp;:ClassService" style="rounded=0;whiteSpace=wrap;html=1;" vertex="1" parent="1">
          <mxGeometry x="-800" y="-465" width="130.91" height="40" as="geometry" />
        </mxCell>
        <mxCell id="O3po6VfUxNVomvbEVrZp-21" style="edgeStyle=orthogonalEdgeStyle;rounded=0;orthogonalLoop=1;jettySize=auto;html=1;entryX=0;entryY=0.5;entryDx=0;entryDy=0;endArrow=none;startFill=0;" edge="1" parent="1" target="O3po6VfUxNVomvbEVrZp-20">
          <mxGeometry relative="1" as="geometry">
            <mxPoint x="-1009.0899999999999" y="-445" as="sourcePoint" />
            <mxPoint x="-804.0899999999999" y="-445" as="targetPoint" />
          </mxGeometry>
        </mxCell>
        <mxCell id="O3po6VfUxNVomvbEVrZp-22" value="" style="endArrow=classic;html=1;rounded=0;" edge="1" parent="1">
          <mxGeometry width="50" height="50" relative="1" as="geometry">
            <mxPoint x="-984.0899999999999" y="-460" as="sourcePoint" />
            <mxPoint x="-824.0899999999999" y="-460" as="targetPoint" />
          </mxGeometry>
        </mxCell>
        <mxCell id="O3po6VfUxNVomvbEVrZp-23" value="" style="endArrow=classic;html=1;rounded=0;dashed=1;" edge="1" parent="1">
          <mxGeometry width="50" height="50" relative="1" as="geometry">
            <mxPoint x="-829.9999999999999" y="-430" as="sourcePoint" />
            <mxPoint x="-990" y="-430" as="targetPoint" />
          </mxGeometry>
        </mxCell>
        <mxCell id="O3po6VfUxNVomvbEVrZp-24" value="&amp;nbsp;:ClassRepository" style="rounded=0;whiteSpace=wrap;html=1;" vertex="1" parent="1">
          <mxGeometry x="-460" y="-465" width="130.91" height="40" as="geometry" />
        </mxCell>
        <mxCell id="O3po6VfUxNVomvbEVrZp-25" style="edgeStyle=orthogonalEdgeStyle;rounded=0;orthogonalLoop=1;jettySize=auto;html=1;entryX=0;entryY=0.5;entryDx=0;entryDy=0;endArrow=none;startFill=0;" edge="1" parent="1" target="O3po6VfUxNVomvbEVrZp-24">
          <mxGeometry relative="1" as="geometry">
            <mxPoint x="-669.0899999999999" y="-445" as="sourcePoint" />
            <mxPoint x="-464.0899999999999" y="-445" as="targetPoint" />
          </mxGeometry>
        </mxCell>
        <mxCell id="O3po6VfUxNVomvbEVrZp-26" value="" style="endArrow=classic;html=1;rounded=0;" edge="1" parent="1">
          <mxGeometry width="50" height="50" relative="1" as="geometry">
            <mxPoint x="-644.0899999999999" y="-460" as="sourcePoint" />
            <mxPoint x="-484.0899999999999" y="-460" as="targetPoint" />
          </mxGeometry>
        </mxCell>
        <mxCell id="O3po6VfUxNVomvbEVrZp-27" value="" style="endArrow=classic;html=1;rounded=0;dashed=1;" edge="1" parent="1">
          <mxGeometry width="50" height="50" relative="1" as="geometry">
            <mxPoint x="-494.0899999999999" y="-430" as="sourcePoint" />
            <mxPoint x="-654.0899999999999" y="-430" as="targetPoint" />
          </mxGeometry>
        </mxCell>
        <mxCell id="O3po6VfUxNVomvbEVrZp-28" value="&amp;nbsp;:Database" style="rounded=0;whiteSpace=wrap;html=1;" vertex="1" parent="1">
          <mxGeometry x="-459.99999999999994" y="-220" width="130.91" height="40" as="geometry" />
        </mxCell>
        <mxCell id="O3po6VfUxNVomvbEVrZp-29" value="" style="endArrow=classic;html=1;rounded=0;" edge="1" parent="1">
          <mxGeometry width="50" height="50" relative="1" as="geometry">
            <mxPoint x="-410" y="-400" as="sourcePoint" />
            <mxPoint x="-410" y="-240" as="targetPoint" />
          </mxGeometry>
        </mxCell>
        <mxCell id="O3po6VfUxNVomvbEVrZp-30" value="" style="endArrow=classic;html=1;rounded=0;dashed=1;" edge="1" parent="1">
          <mxGeometry width="50" height="50" relative="1" as="geometry">
            <mxPoint x="-380" y="-240" as="sourcePoint" />
            <mxPoint x="-380" y="-400" as="targetPoint" />
          </mxGeometry>
        </mxCell>
        <mxCell id="O3po6VfUxNVomvbEVrZp-31" value="&lt;div&gt;1. [User selects a class] .handlePublicClassClick(class_id)&lt;br&gt;&lt;/div&gt;&lt;div&gt;&lt;br&gt;&lt;/div&gt;" style="text;html=1;align=center;verticalAlign=middle;resizable=0;points=[];autosize=1;strokeColor=none;fillColor=none;" vertex="1" parent="1">
          <mxGeometry x="-2160" y="-490" width="340" height="40" as="geometry" />
        </mxCell>
        <mxCell id="O3po6VfUxNVomvbEVrZp-32" value="&lt;div&gt;2. GET /api/classes/{class-id}&lt;br&gt;&lt;/div&gt;" style="text;html=1;align=center;verticalAlign=middle;resizable=0;points=[];autosize=1;strokeColor=none;fillColor=none;" vertex="1" parent="1">
          <mxGeometry x="-1675" y="-495" width="180" height="30" as="geometry" />
        </mxCell>
        <mxCell id="O3po6VfUxNVomvbEVrZp-33" value="&lt;div&gt;3. .Use(Middleware)&lt;br&gt;&lt;/div&gt;" style="text;html=1;align=center;verticalAlign=middle;resizable=0;points=[];autosize=1;strokeColor=none;fillColor=none;" vertex="1" parent="1">
          <mxGeometry x="-1580" y="-240" width="140" height="30" as="geometry" />
        </mxCell>
        <mxCell id="O3po6VfUxNVomvbEVrZp-34" value="&lt;div align=&quot;left&quot;&gt;6. 401 Unauthorized&lt;/div&gt;&lt;div align=&quot;left&quot;&gt;17. 500 Internet Server Error&lt;/div&gt;&lt;div align=&quot;left&quot;&gt;20. 404 Not Found&lt;/div&gt;&lt;div align=&quot;left&quot;&gt;23. 200 OK&lt;/div&gt;&lt;div align=&quot;left&quot;&gt;&lt;br&gt;&lt;/div&gt;&lt;div align=&quot;left&quot;&gt;&lt;br&gt;&lt;/div&gt;" style="text;html=1;align=left;verticalAlign=middle;resizable=0;points=[];autosize=1;strokeColor=none;fillColor=none;" vertex="1" parent="1">
          <mxGeometry x="-1670" y="-425" width="190" height="100" as="geometry" />
        </mxCell>
        <mxCell id="O3po6VfUxNVomvbEVrZp-35" value="&lt;div align=&quot;left&quot;&gt;7. Show error &quot;Please log in&quot;&lt;/div&gt;&lt;div align=&quot;left&quot;&gt;18. Show error &quot;Failed to fetch class&quot;&lt;/div&gt;&lt;div align=&quot;left&quot;&gt;21. Show message &quot;Class not found&quot;&lt;/div&gt;&lt;div align=&quot;left&quot;&gt;24. Show class details&lt;/div&gt;" style="text;html=1;align=left;verticalAlign=middle;resizable=0;points=[];autosize=1;strokeColor=none;fillColor=none;" vertex="1" parent="1">
          <mxGeometry x="-2140" y="-420" width="230" height="70" as="geometry" />
        </mxCell>
        <mxCell id="O3po6VfUxNVomvbEVrZp-36" value="&lt;div align=&quot;left&quot;&gt;8. [Authorized] Route to Router&lt;/div&gt;&lt;div align=&quot;left&quot;&gt;5. [Unauthorized (401 Unauthorized)] 401 Unauthorized&lt;/div&gt;" style="text;html=1;align=left;verticalAlign=middle;resizable=0;points=[];autosize=1;strokeColor=none;fillColor=none;" vertex="1" parent="1">
          <mxGeometry x="-1390" y="-250" width="340" height="40" as="geometry" />
        </mxCell>
        <mxCell id="O3po6VfUxNVomvbEVrZp-37" value="9. .GetClass(class-id)" style="text;html=1;align=center;verticalAlign=middle;resizable=0;points=[];autosize=1;strokeColor=none;fillColor=none;" vertex="1" parent="1">
          <mxGeometry x="-1300" y="-490" width="140" height="30" as="geometry" />
        </mxCell>
        <mxCell id="O3po6VfUxNVomvbEVrZp-38" value="11. .GetClass(class-id)" style="text;html=1;align=center;verticalAlign=middle;resizable=0;points=[];autosize=1;strokeColor=none;fillColor=none;" vertex="1" parent="1">
          <mxGeometry x="-645" y="-490" width="140" height="30" as="geometry" />
        </mxCell>
        <mxCell id="O3po6VfUxNVomvbEVrZp-39" value="10. .GetClass(class-id)" style="text;html=1;align=center;verticalAlign=middle;resizable=0;points=[];autosize=1;strokeColor=none;fillColor=none;" vertex="1" parent="1">
          <mxGeometry x="-975" y="-490" width="140" height="30" as="geometry" />
        </mxCell>
        <mxCell id="O3po6VfUxNVomvbEVrZp-40" value="12. SELECT * FROM classes WHERE id = @class_id" style="text;html=1;align=center;verticalAlign=middle;resizable=0;points=[];autosize=1;strokeColor=none;fillColor=none;" vertex="1" parent="1">
          <mxGeometry x="-734.09" y="-310" width="310" height="30" as="geometry" />
        </mxCell>
        <mxCell id="O3po6VfUxNVomvbEVrZp-41" value="13. Class, Error" style="text;html=1;align=center;verticalAlign=middle;resizable=0;points=[];autosize=1;strokeColor=none;fillColor=none;" vertex="1" parent="1">
          <mxGeometry x="-370.00000000000006" y="-310" width="110" height="30" as="geometry" />
        </mxCell>
        <mxCell id="O3po6VfUxNVomvbEVrZp-42" value="14. Class, Error" style="text;html=1;align=center;verticalAlign=middle;resizable=0;points=[];autosize=1;strokeColor=none;fillColor=none;" vertex="1" parent="1">
          <mxGeometry x="-650" y="-425" width="110" height="30" as="geometry" />
        </mxCell>
        <mxCell id="O3po6VfUxNVomvbEVrZp-43" value="15. Class, Error" style="text;html=1;align=center;verticalAlign=middle;resizable=0;points=[];autosize=1;strokeColor=none;fillColor=none;" vertex="1" parent="1">
          <mxGeometry x="-970" y="-430" width="110" height="30" as="geometry" />
        </mxCell>
        <mxCell id="O3po6VfUxNVomvbEVrZp-44" value="&lt;div&gt;16. [Error != Null] 500 Internet Server Error&lt;/div&gt;&lt;div align=&quot;left&quot;&gt;19. [Class, == Null] 404 Not Found&lt;/div&gt;&lt;div align=&quot;left&quot;&gt;22. 200 OK&lt;/div&gt;" style="text;html=1;align=center;verticalAlign=middle;resizable=0;points=[];autosize=1;strokeColor=none;fillColor=none;" vertex="1" parent="1">
          <mxGeometry x="-1370" y="-425" width="270" height="60" as="geometry" />
        </mxCell>
        <mxCell id="O3po6VfUxNVomvbEVrZp-45" value="" style="endArrow=none;html=1;rounded=0;" edge="1" parent="1">
          <mxGeometry width="50" height="50" relative="1" as="geometry">
            <mxPoint x="-1450" y="-120" as="sourcePoint" />
            <mxPoint x="-1450" y="-149" as="targetPoint" />
            <Array as="points">
              <mxPoint x="-1450" y="-130" />
            </Array>
          </mxGeometry>
        </mxCell>
        <mxCell id="O3po6VfUxNVomvbEVrZp-46" value="" style="endArrow=none;html=1;rounded=0;" edge="1" parent="1">
          <mxGeometry width="50" height="50" relative="1" as="geometry">
            <mxPoint x="-1400" y="-120" as="sourcePoint" />
            <mxPoint x="-1450" y="-120" as="targetPoint" />
          </mxGeometry>
        </mxCell>
        <mxCell id="O3po6VfUxNVomvbEVrZp-47" value="" style="endArrow=classic;html=1;rounded=0;entryX=0.609;entryY=1.015;entryDx=0;entryDy=0;entryPerimeter=0;" edge="1" parent="1" target="O3po6VfUxNVomvbEVrZp-16">
          <mxGeometry width="50" height="50" relative="1" as="geometry">
            <mxPoint x="-1400" y="-120" as="sourcePoint" />
            <mxPoint x="-1400" y="-160" as="targetPoint" />
          </mxGeometry>
        </mxCell>
        <mxCell id="O3po6VfUxNVomvbEVrZp-48" value="4. .Verify()" style="text;html=1;align=center;verticalAlign=middle;resizable=0;points=[];autosize=1;strokeColor=none;fillColor=none;" vertex="1" parent="1">
          <mxGeometry x="-1470" y="-100" width="80" height="30" as="geometry" />
        </mxCell>
        <mxCell id="O3po6VfUxNVomvbEVrZp-50" value="CD-Join-Public-class-[opt][Authorized][User Select Class]" style="text;html=1;align=center;verticalAlign=middle;whiteSpace=wrap;rounded=0;fontSize=20;" vertex="1" parent="1">
          <mxGeometry x="-1570" y="-580" width="600" height="30" as="geometry" />
        </mxCell>
      </root>
    </mxGraphModel>
  </diagram>
  <diagram id="KtfafyGkPzFdDE5FBATN" name="CD-Join-Public-class-[opt][Authorized][User Select Class]">
    <mxGraphModel dx="4087" dy="1715" grid="1" gridSize="10" guides="1" tooltips="1" connect="1" arrows="1" fold="1" page="0" pageScale="1" pageWidth="850" pageHeight="1100" math="0" shadow="0">
      <root>
        <mxCell id="0" />
        <mxCell id="1" parent="0" />
        <mxCell id="P3f5Qer7WMIw1QzVFYS_-1" value="CD-Join-Public-class-[opt][Authorized][User join class]" style="text;html=1;align=center;verticalAlign=middle;whiteSpace=wrap;rounded=0;fontSize=20;" vertex="1" parent="1">
          <mxGeometry x="-1570" y="-580" width="600" height="30" as="geometry" />
        </mxCell>
        <mxCell id="5BQmS3eQiPQkgezMB_5S-1" style="edgeStyle=orthogonalEdgeStyle;rounded=0;orthogonalLoop=1;jettySize=auto;html=1;entryX=0;entryY=0.5;entryDx=0;entryDy=0;endArrow=none;startFill=0;" edge="1" parent="1">
          <mxGeometry relative="1" as="geometry">
            <mxPoint x="-2150" y="-440" as="sourcePoint" />
            <mxPoint x="-1820" y="-440" as="targetPoint" />
          </mxGeometry>
        </mxCell>
        <mxCell id="5BQmS3eQiPQkgezMB_5S-2" value="User" style="shape=umlActor;verticalLabelPosition=bottom;verticalAlign=top;html=1;outlineConnect=0;" vertex="1" parent="1">
          <mxGeometry x="-2190" y="-480" width="35" height="70" as="geometry" />
        </mxCell>
        <mxCell id="5BQmS3eQiPQkgezMB_5S-3" value=":Frontend" style="rounded=0;whiteSpace=wrap;html=1;" vertex="1" parent="1">
          <mxGeometry x="-1820" y="-465" width="130.91" height="40" as="geometry" />
        </mxCell>
        <mxCell id="5BQmS3eQiPQkgezMB_5S-4" value="" style="endArrow=classic;html=1;rounded=0;" edge="1" parent="1">
          <mxGeometry width="50" height="50" relative="1" as="geometry">
            <mxPoint x="-2140" y="-455" as="sourcePoint" />
            <mxPoint x="-1840" y="-455" as="targetPoint" />
          </mxGeometry>
        </mxCell>
        <mxCell id="5BQmS3eQiPQkgezMB_5S-5" value="" style="endArrow=classic;html=1;rounded=0;dashed=1;" edge="1" parent="1">
          <mxGeometry width="50" height="50" relative="1" as="geometry">
            <mxPoint x="-1850" y="-425" as="sourcePoint" />
            <mxPoint x="-2140" y="-425" as="targetPoint" />
          </mxGeometry>
        </mxCell>
        <mxCell id="5BQmS3eQiPQkgezMB_5S-6" value="&amp;nbsp;:Router" style="rounded=0;whiteSpace=wrap;html=1;" vertex="1" parent="1">
          <mxGeometry x="-1480" y="-465" width="130.91" height="40" as="geometry" />
        </mxCell>
        <mxCell id="5BQmS3eQiPQkgezMB_5S-7" style="edgeStyle=orthogonalEdgeStyle;rounded=0;orthogonalLoop=1;jettySize=auto;html=1;entryX=0;entryY=0.5;entryDx=0;entryDy=0;endArrow=none;startFill=0;" edge="1" parent="1" target="5BQmS3eQiPQkgezMB_5S-6">
          <mxGeometry relative="1" as="geometry">
            <mxPoint x="-1689.09" y="-445" as="sourcePoint" />
            <mxPoint x="-1484.09" y="-445" as="targetPoint" />
          </mxGeometry>
        </mxCell>
        <mxCell id="5BQmS3eQiPQkgezMB_5S-8" value="" style="endArrow=classic;html=1;rounded=0;" edge="1" parent="1">
          <mxGeometry width="50" height="50" relative="1" as="geometry">
            <mxPoint x="-1664.09" y="-460" as="sourcePoint" />
            <mxPoint x="-1504.09" y="-460" as="targetPoint" />
          </mxGeometry>
        </mxCell>
        <mxCell id="5BQmS3eQiPQkgezMB_5S-9" value="" style="endArrow=classic;html=1;rounded=0;dashed=1;" edge="1" parent="1">
          <mxGeometry width="50" height="50" relative="1" as="geometry">
            <mxPoint x="-1514.09" y="-430" as="sourcePoint" />
            <mxPoint x="-1674.09" y="-430" as="targetPoint" />
          </mxGeometry>
        </mxCell>
        <mxCell id="5BQmS3eQiPQkgezMB_5S-10" value="&amp;nbsp;" style="text;whiteSpace=wrap;html=1;" vertex="1" parent="1">
          <mxGeometry x="-1580" y="-480" width="40" height="40" as="geometry" />
        </mxCell>
        <mxCell id="5BQmS3eQiPQkgezMB_5S-11" style="edgeStyle=orthogonalEdgeStyle;rounded=0;orthogonalLoop=1;jettySize=auto;html=1;entryX=0;entryY=0.5;entryDx=0;entryDy=0;endArrow=none;startFill=0;" edge="1" parent="1">
          <mxGeometry relative="1" as="geometry">
            <mxPoint x="-1349.09" y="-445" as="sourcePoint" />
            <mxPoint x="-1140" y="-445" as="targetPoint" />
          </mxGeometry>
        </mxCell>
        <mxCell id="5BQmS3eQiPQkgezMB_5S-12" value="" style="endArrow=classic;html=1;rounded=0;" edge="1" parent="1">
          <mxGeometry width="50" height="50" relative="1" as="geometry">
            <mxPoint x="-1324.09" y="-460" as="sourcePoint" />
            <mxPoint x="-1164.09" y="-460" as="targetPoint" />
          </mxGeometry>
        </mxCell>
        <mxCell id="5BQmS3eQiPQkgezMB_5S-13" value="" style="endArrow=classic;html=1;rounded=0;dashed=1;" edge="1" parent="1">
          <mxGeometry width="50" height="50" relative="1" as="geometry">
            <mxPoint x="-1174.09" y="-430" as="sourcePoint" />
            <mxPoint x="-1334.09" y="-430" as="targetPoint" />
          </mxGeometry>
        </mxCell>
        <mxCell id="5BQmS3eQiPQkgezMB_5S-14" style="edgeStyle=orthogonalEdgeStyle;rounded=0;orthogonalLoop=1;jettySize=auto;html=1;endArrow=none;startFill=0;" edge="1" parent="1" target="5BQmS3eQiPQkgezMB_5S-28">
          <mxGeometry relative="1" as="geometry">
            <mxPoint x="-334.5450000000001" y="-425" as="sourcePoint" />
          </mxGeometry>
        </mxCell>
        <mxCell id="5BQmS3eQiPQkgezMB_5S-15" style="edgeStyle=orthogonalEdgeStyle;rounded=0;orthogonalLoop=1;jettySize=auto;html=1;entryX=0.5;entryY=1;entryDx=0;entryDy=0;endArrow=none;startFill=0;" edge="1" parent="1" source="5BQmS3eQiPQkgezMB_5S-16" target="5BQmS3eQiPQkgezMB_5S-6">
          <mxGeometry relative="1" as="geometry" />
        </mxCell>
        <mxCell id="5BQmS3eQiPQkgezMB_5S-16" value="&amp;nbsp;:Middleware" style="rounded=0;whiteSpace=wrap;html=1;" vertex="1" parent="1">
          <mxGeometry x="-1480" y="-190" width="130.91" height="40" as="geometry" />
        </mxCell>
        <mxCell id="5BQmS3eQiPQkgezMB_5S-17" value="" style="endArrow=classic;html=1;rounded=0;dashed=1;" edge="1" parent="1">
          <mxGeometry width="50" height="50" relative="1" as="geometry">
            <mxPoint x="-1400" y="-200" as="sourcePoint" />
            <mxPoint x="-1400" y="-400" as="targetPoint" />
          </mxGeometry>
        </mxCell>
        <mxCell id="5BQmS3eQiPQkgezMB_5S-18" value="" style="endArrow=classic;html=1;rounded=0;" edge="1" parent="1">
          <mxGeometry width="50" height="50" relative="1" as="geometry">
            <mxPoint x="-1430.43" y="-400" as="sourcePoint" />
            <mxPoint x="-1430.43" y="-200" as="targetPoint" />
          </mxGeometry>
        </mxCell>
        <mxCell id="5BQmS3eQiPQkgezMB_5S-19" value="&amp;nbsp;:EnrollmentController" style="rounded=0;whiteSpace=wrap;html=1;" vertex="1" parent="1">
          <mxGeometry x="-1140" y="-465" width="150" height="40" as="geometry" />
        </mxCell>
        <mxCell id="5BQmS3eQiPQkgezMB_5S-20" value="&amp;nbsp;:EnrollmentService" style="rounded=0;whiteSpace=wrap;html=1;" vertex="1" parent="1">
          <mxGeometry x="-750" y="-465" width="140.91" height="40" as="geometry" />
        </mxCell>
        <mxCell id="5BQmS3eQiPQkgezMB_5S-21" style="edgeStyle=orthogonalEdgeStyle;rounded=0;orthogonalLoop=1;jettySize=auto;html=1;entryX=0;entryY=0.5;entryDx=0;entryDy=0;endArrow=none;startFill=0;" edge="1" parent="1" target="5BQmS3eQiPQkgezMB_5S-20">
          <mxGeometry relative="1" as="geometry">
            <mxPoint x="-990" y="-445" as="sourcePoint" />
            <mxPoint x="-804.0899999999999" y="-445" as="targetPoint" />
          </mxGeometry>
        </mxCell>
        <mxCell id="5BQmS3eQiPQkgezMB_5S-22" value="" style="endArrow=classic;html=1;rounded=0;" edge="1" parent="1">
          <mxGeometry width="50" height="50" relative="1" as="geometry">
            <mxPoint x="-970" y="-460" as="sourcePoint" />
            <mxPoint x="-764.0899999999999" y="-460" as="targetPoint" />
          </mxGeometry>
        </mxCell>
        <mxCell id="5BQmS3eQiPQkgezMB_5S-23" value="" style="endArrow=classic;html=1;rounded=0;dashed=1;" edge="1" parent="1">
          <mxGeometry width="50" height="50" relative="1" as="geometry">
            <mxPoint x="-769.9999999999999" y="-430" as="sourcePoint" />
            <mxPoint x="-970" y="-430" as="targetPoint" />
          </mxGeometry>
        </mxCell>
        <mxCell id="5BQmS3eQiPQkgezMB_5S-24" value="&amp;nbsp;:EnrollmentRepository" style="rounded=0;whiteSpace=wrap;html=1;" vertex="1" parent="1">
          <mxGeometry x="-400" y="-465" width="160" height="40" as="geometry" />
        </mxCell>
        <mxCell id="5BQmS3eQiPQkgezMB_5S-25" style="edgeStyle=orthogonalEdgeStyle;rounded=0;orthogonalLoop=1;jettySize=auto;html=1;entryX=0;entryY=0.5;entryDx=0;entryDy=0;endArrow=none;startFill=0;" edge="1" parent="1" target="5BQmS3eQiPQkgezMB_5S-24">
          <mxGeometry relative="1" as="geometry">
            <mxPoint x="-609.0899999999999" y="-445" as="sourcePoint" />
            <mxPoint x="-404.0899999999999" y="-445" as="targetPoint" />
          </mxGeometry>
        </mxCell>
        <mxCell id="5BQmS3eQiPQkgezMB_5S-26" value="" style="endArrow=classic;html=1;rounded=0;" edge="1" parent="1">
          <mxGeometry width="50" height="50" relative="1" as="geometry">
            <mxPoint x="-584.0899999999999" y="-460" as="sourcePoint" />
            <mxPoint x="-424.0899999999999" y="-460" as="targetPoint" />
          </mxGeometry>
        </mxCell>
        <mxCell id="5BQmS3eQiPQkgezMB_5S-27" value="" style="endArrow=classic;html=1;rounded=0;dashed=1;" edge="1" parent="1">
          <mxGeometry width="50" height="50" relative="1" as="geometry">
            <mxPoint x="-434.0899999999999" y="-430" as="sourcePoint" />
            <mxPoint x="-594.0899999999999" y="-430" as="targetPoint" />
          </mxGeometry>
        </mxCell>
        <mxCell id="5BQmS3eQiPQkgezMB_5S-28" value="&amp;nbsp;:Database" style="rounded=0;whiteSpace=wrap;html=1;" vertex="1" parent="1">
          <mxGeometry x="-399.99999999999994" y="-220" width="130.91" height="40" as="geometry" />
        </mxCell>
        <mxCell id="5BQmS3eQiPQkgezMB_5S-29" value="" style="endArrow=classic;html=1;rounded=0;" edge="1" parent="1">
          <mxGeometry width="50" height="50" relative="1" as="geometry">
            <mxPoint x="-350" y="-400" as="sourcePoint" />
            <mxPoint x="-350" y="-240" as="targetPoint" />
          </mxGeometry>
        </mxCell>
        <mxCell id="5BQmS3eQiPQkgezMB_5S-30" value="" style="endArrow=classic;html=1;rounded=0;dashed=1;" edge="1" parent="1">
          <mxGeometry width="50" height="50" relative="1" as="geometry">
            <mxPoint x="-320" y="-240" as="sourcePoint" />
            <mxPoint x="-320" y="-400" as="targetPoint" />
          </mxGeometry>
        </mxCell>
        <mxCell id="5BQmS3eQiPQkgezMB_5S-31" value="&lt;div&gt;1. [User join class] .handlePublicClassClick(class_id)&lt;br&gt;&lt;/div&gt;&lt;div&gt;&lt;br&gt;&lt;/div&gt;" style="text;html=1;align=center;verticalAlign=middle;resizable=0;points=[];autosize=1;strokeColor=none;fillColor=none;" vertex="1" parent="1">
          <mxGeometry x="-2150" y="-490" width="320" height="40" as="geometry" />
        </mxCell>
        <mxCell id="5BQmS3eQiPQkgezMB_5S-32" value="&lt;div&gt;2. POST /api/enrollments&lt;br&gt;&lt;/div&gt;" style="text;html=1;align=center;verticalAlign=middle;resizable=0;points=[];autosize=1;strokeColor=none;fillColor=none;" vertex="1" parent="1">
          <mxGeometry x="-1665" y="-495" width="160" height="30" as="geometry" />
        </mxCell>
        <mxCell id="5BQmS3eQiPQkgezMB_5S-33" value="&lt;div&gt;3. .Use(Middleware)&lt;br&gt;&lt;/div&gt;" style="text;html=1;align=center;verticalAlign=middle;resizable=0;points=[];autosize=1;strokeColor=none;fillColor=none;" vertex="1" parent="1">
          <mxGeometry x="-1580" y="-240" width="140" height="30" as="geometry" />
        </mxCell>
        <mxCell id="5BQmS3eQiPQkgezMB_5S-34" value="&lt;div align=&quot;left&quot;&gt;6. 401 Unauthorized&lt;/div&gt;&lt;div align=&quot;left&quot;&gt;17. 500 Internet Server Error&lt;/div&gt;&lt;div align=&quot;left&quot;&gt;19. 404 Not Found&lt;/div&gt;&lt;div align=&quot;left&quot;&gt;22. 200 OK&lt;/div&gt;&lt;div align=&quot;left&quot;&gt;&lt;br&gt;&lt;/div&gt;&lt;div align=&quot;left&quot;&gt;&lt;br&gt;&lt;/div&gt;" style="text;html=1;align=left;verticalAlign=middle;resizable=0;points=[];autosize=1;strokeColor=none;fillColor=none;" vertex="1" parent="1">
          <mxGeometry x="-1680" y="-425" width="190" height="100" as="geometry" />
        </mxCell>
        <mxCell id="5BQmS3eQiPQkgezMB_5S-35" value="&lt;div align=&quot;left&quot;&gt;7. Show error &quot;Please log in&quot;&lt;/div&gt;&lt;div align=&quot;left&quot;&gt;18. Show error &quot;Failed to fetch class&quot;&lt;/div&gt;&lt;div align=&quot;left&quot;&gt;20. Show message &quot;Class not found&quot;&lt;/div&gt;&lt;div align=&quot;left&quot;&gt;23. Show class details&lt;/div&gt;" style="text;html=1;align=left;verticalAlign=middle;resizable=0;points=[];autosize=1;strokeColor=none;fillColor=none;" vertex="1" parent="1">
          <mxGeometry x="-2140" y="-420" width="230" height="70" as="geometry" />
        </mxCell>
        <mxCell id="5BQmS3eQiPQkgezMB_5S-36" value="&lt;div align=&quot;left&quot;&gt;8. [Authorized] Route to Router&lt;/div&gt;&lt;div align=&quot;left&quot;&gt;5. [Unauthorized (401 Unauthorized)] 401 Unauthorized&lt;/div&gt;" style="text;html=1;align=left;verticalAlign=middle;resizable=0;points=[];autosize=1;strokeColor=none;fillColor=none;" vertex="1" parent="1">
          <mxGeometry x="-1390" y="-250" width="340" height="40" as="geometry" />
        </mxCell>
        <mxCell id="5BQmS3eQiPQkgezMB_5S-37" value="9. .CreateEnrollment(user-id, class-id)" style="text;html=1;align=center;verticalAlign=middle;resizable=0;points=[];autosize=1;strokeColor=none;fillColor=none;" vertex="1" parent="1">
          <mxGeometry x="-1350" y="-490" width="240" height="30" as="geometry" />
        </mxCell>
        <mxCell id="5BQmS3eQiPQkgezMB_5S-38" value="11. .CreateEnrollment(user-id, class-id)" style="text;html=1;align=center;verticalAlign=middle;resizable=0;points=[];autosize=1;strokeColor=none;fillColor=none;" vertex="1" parent="1">
          <mxGeometry x="-620" y="-490" width="240" height="30" as="geometry" />
        </mxCell>
        <mxCell id="5BQmS3eQiPQkgezMB_5S-39" value="10. .CreateEnrollment(user-id, class-id)" style="text;html=1;align=center;verticalAlign=middle;resizable=0;points=[];autosize=1;strokeColor=none;fillColor=none;" vertex="1" parent="1">
          <mxGeometry x="-980" y="-490" width="240" height="30" as="geometry" />
        </mxCell>
        <mxCell id="5BQmS3eQiPQkgezMB_5S-40" value="&lt;div&gt;12. INSERT INTO user_classes (user_id, class_id) VALUES (@user_id, @class_id)&lt;/div&gt;&lt;div align=&quot;left&quot;&gt;14. INSERT INTO user_courses (user_id, class_id) VALUES (@user_id, @class_id)&lt;br&gt;&lt;/div&gt;" style="text;html=1;align=center;verticalAlign=middle;resizable=0;points=[];autosize=1;strokeColor=none;fillColor=none;" vertex="1" parent="1">
          <mxGeometry x="-820" y="-355" width="470" height="40" as="geometry" />
        </mxCell>
        <mxCell id="5BQmS3eQiPQkgezMB_5S-41" value="&lt;div align=&quot;left&quot;&gt;13. user_classes, Error&lt;/div&gt;&lt;div align=&quot;left&quot;&gt;15. user_courses, Error&lt;br&gt;&lt;/div&gt;" style="text;html=1;align=left;verticalAlign=middle;resizable=0;points=[];autosize=1;strokeColor=none;fillColor=none;" vertex="1" parent="1">
          <mxGeometry x="-310.00000000000006" y="-355" width="150" height="40" as="geometry" />
        </mxCell>
        <mxCell id="5BQmS3eQiPQkgezMB_5S-42" value="16. Enrollment, Error" style="text;html=1;align=center;verticalAlign=middle;resizable=0;points=[];autosize=1;strokeColor=none;fillColor=none;" vertex="1" parent="1">
          <mxGeometry x="-610" y="-425" width="150" height="30" as="geometry" />
        </mxCell>
        <mxCell id="5BQmS3eQiPQkgezMB_5S-43" value="17. Enrollment, Error" style="text;html=1;align=center;verticalAlign=middle;resizable=0;points=[];autosize=1;strokeColor=none;fillColor=none;" vertex="1" parent="1">
          <mxGeometry x="-950" y="-430" width="150" height="30" as="geometry" />
        </mxCell>
        <mxCell id="5BQmS3eQiPQkgezMB_5S-44" value="&lt;div&gt;16. [Error != Null] 500 Internet Server Error&lt;/div&gt;&lt;div align=&quot;left&quot;&gt;18. [Class, == Null] 404 Not Found&lt;/div&gt;&lt;div align=&quot;left&quot;&gt;21. 200 OK&lt;/div&gt;" style="text;html=1;align=center;verticalAlign=middle;resizable=0;points=[];autosize=1;strokeColor=none;fillColor=none;" vertex="1" parent="1">
          <mxGeometry x="-1370" y="-425" width="270" height="60" as="geometry" />
        </mxCell>
        <mxCell id="5BQmS3eQiPQkgezMB_5S-45" value="" style="endArrow=none;html=1;rounded=0;" edge="1" parent="1">
          <mxGeometry width="50" height="50" relative="1" as="geometry">
            <mxPoint x="-1450" y="-120" as="sourcePoint" />
            <mxPoint x="-1450" y="-149" as="targetPoint" />
            <Array as="points">
              <mxPoint x="-1450" y="-130" />
            </Array>
          </mxGeometry>
        </mxCell>
        <mxCell id="5BQmS3eQiPQkgezMB_5S-46" value="" style="endArrow=none;html=1;rounded=0;" edge="1" parent="1">
          <mxGeometry width="50" height="50" relative="1" as="geometry">
            <mxPoint x="-1400" y="-120" as="sourcePoint" />
            <mxPoint x="-1450" y="-120" as="targetPoint" />
          </mxGeometry>
        </mxCell>
        <mxCell id="5BQmS3eQiPQkgezMB_5S-47" value="" style="endArrow=classic;html=1;rounded=0;entryX=0.609;entryY=1.015;entryDx=0;entryDy=0;entryPerimeter=0;" edge="1" parent="1" target="5BQmS3eQiPQkgezMB_5S-16">
          <mxGeometry width="50" height="50" relative="1" as="geometry">
            <mxPoint x="-1400" y="-120" as="sourcePoint" />
            <mxPoint x="-1400" y="-160" as="targetPoint" />
          </mxGeometry>
        </mxCell>
        <mxCell id="5BQmS3eQiPQkgezMB_5S-48" value="4. .Verify()" style="text;html=1;align=center;verticalAlign=middle;resizable=0;points=[];autosize=1;strokeColor=none;fillColor=none;" vertex="1" parent="1">
          <mxGeometry x="-1470" y="-100" width="80" height="30" as="geometry" />
        </mxCell>
      </root>
    </mxGraphModel>
  </diagram>
</mxfile>
